<svg xmlns="http://www.w3.org/2000/svg" width="51" height="50" viewBox="0 0 51 50">
  <g id="ჩანთა" transform="translate(-275 -986)">
    <rect id="Rectangle_51" data-name="Rectangle 51" width="50" height="50" transform="translate(275 986)" fill="none"/>
    <path id="shopping-bag" d="M43.992,47.951,40.811,19.506A1.289,1.289,0,0,0,39.53,18.36H31.582V16.083a9.582,9.582,0,0,0-19.164,0V18.36H4.466a1.289,1.289,0,0,0-1.281,1.146L.008,47.951a1.289,1.289,0,0,0,1.281,1.432H42.711a1.289,1.289,0,0,0,1.281-1.432ZM15,16.083a7,7,0,1,1,14.008,0V18.36H15ZM2.73,46.805,5.619,20.938h6.8v2.8a3.867,3.867,0,1,0,2.578,0v-2.8H29v2.8a3.867,3.867,0,1,0,2.578,0v-2.8h6.795L41.27,46.805ZM13.707,26.095a1.289,1.289,0,1,1-1.289,1.289A1.291,1.291,0,0,1,13.707,26.095Zm16.586,0A1.289,1.289,0,1,1,29,27.384,1.291,1.291,0,0,1,30.293,26.095Z" transform="translate(282 986.499)"/>
  </g>
</svg>
